<svg xmlns="http://www.w3.org/2000/svg" viewBox="0 0 1404.82 447.26"><defs><style>.cls-1{fill:#f5a623;}</style></defs><title>BhaktivedantaSwami</title><g id="Layer_2" data-name="Layer 2"><g id="Layer_1-2" data-name="Layer 1"><path class="cls-1" d="M539.23,313.47C552.37,277,567.05,241,581.68,204.85c6.69-13.31,10.74,6.5,5.64,11.71-16.76,31.4-28.72,66.89-29.53,92.15-6.64,38.71,27.72-16.56,31.14-25,5.88-44.08.93-28.79-3.21-36.55,0-4.65,5.39-11.65,9.07-4.61,29.09-170.67,58.82-194.32,18.13-10.64-.74,3.38-3.41,8.29,2.18,7.27,24.32-2.65,17,29.24,16.54,44.49-.78,9.66-4.73,51.16-10.63,39.73,3-22.72,8.43-41.94,6.14-64.5-.94-5.54-5.21-14.46-9.84-15.18-.7,1.71-.29,4.49-3.06,4-9.26-.79-9.34,18.81-13.35,23.77-12,19.65,6.77,51.87-6.28,67.33-9-6.62-1.91-37.05-6.39-40.4-20.32,29.42-41.31,50.65-35.47-.47-5.15,5.54-2.39,15.76-10.26,19.83-9.77,17.84-9.54,2-11.58-9.53-28.62,51.48-30.85,9.49-39.44,19.22-21.84,36.16-23.76,2.49-29,5.62-38.63,22.9-33.34-29.42-29-51.37-15.07,55.08-27.51,104-24.08,11.76-14.72,14.89-8.59,33-30.36,36.78-12.78,29.1-37.55-1.22-41.92-17.58-5.07-13.22-5.32-51.88,16.88-38,7,9.85,13.77,19.6,20.75,29.51,5.11-11.86,7.9-60.92,3-97.13-11.19,16.94-29,46.19-38.68,44-2.45-2.84,1.72-6.22,1.79-10.09.18-4.06-2.12-7,.73-11.27,10.33-13.88,12.28-30.47,22.33-44.84,7.8-12.84,14.22,2.27,16-5.21,4.84-30.39-4-63.43-18.64-90.38-3.3-3.18-17.3-14-14.38-4.6-2.58.43-6.16,1.46-7.58,3.17-17.35,44-13.55,97.08-22.25,145.37-5,27.18-8.75,53.83-23.78,77.42-5.61,27.29-19.8,34.24-25,3.67-9.94,37.56-22.85,62.17-41.91,15.26-3.65-31.92-.19-63-4.7-95-3.8,36.77.75,75.8-12.52,111.34-1.57,5.68-.3,11.45-5.37,16.41-27.53,26.36-29-41.49-30.63-54.17-1.18-22.06,10-324.45,33-225.79,9.72,26.48,7.12,55.22,14.4,82.2,15.2-92.46,22.88-60.28,17.19,3.42-.69,33-21,184.9,10.21,177.64,28-35.4,18.27-44.3,20.79-75.92,5.9-55,8.42-95.82,24.31-126.27,10.6-12.46,3.89,26.39,2.39,31.09,4.4,57.32-22.1,83.9-20.1,125-.22,6.64.25,29.42,5.14,24.1,50.66-70.66,25.73-180.5,55.29-240.89,30-35,51,53,51.07,71.25,2.63,22.61-7.32,42-2.64,65,7.9,53.12-8.47,100.1-.22,102.33,27-21.49,27.21-63.57,29.1-96.55,3.45-33.51,4.08-66.31,15.8-97.09,2.61-4.88,8,1.46,6.14,5.45C425,214.14,411.59,282.77,415,319.57c13.25-22.41,21.26-87.06,30.25-82.12,7.45,5.49-3.73,24.78-3.41,31.62-3.43,18.92-16.11,82.38,19.43,58.52,3.49-6.7-.81-16.7,1.77-24.62,1.49-15.39,24.67-93.3,38.51-52.1,14.85-25.14,18.46,17,14.74,27.14-6.27,26-18.56,34-16.58,40.53,6.63,25,24.19-8,29.66-15.71,3.66-7.21-.7-14.12,1.55-22.4,2-46.28,10.14-92.2,31.13-133.54,11.34-12.39,4.61,25.11,5.05,28.76C548.93,306.3,532.2,285.68,539.23,313.47Zm-341-238c-9.09,20.94-7.23,44.94-11.26,68-5.4,80.62-12.82,149.84-5.22,192.89.5,8,9.71,38,14,20.09,7.23-4.57,9.62-11.73,11.74-20.16,9.89-17.7,7.12-35.51,6.53-54.78.38-35.87,6.49-70.7,3.33-97.51C206.51,128.29,210.75,96.46,198.25,75.42ZM374.47,319.29c.27-9.69-35-56-34.78-33.57C337,329.6,374.49,352.52,374.47,319.29ZM492.73,245c-3.17,4.67-5.52,9.53-10.7,11.81-4.1,15.66-11.38,27.87-12.48,44.2-5.86,39.34,11.33,10.4,18.81-2.36C494.59,282.77,499.88,258.27,492.73,245Zm70.21-88.11c-15.85,40-27,80.87-24.11,124.45C551.12,240.66,560.79,199.49,562.94,156.88Zm-214.11,80c8.43-6.68,24.81-30.24,26.71-40.33.07-4.19-5-5.79-4.22-11.25C362.88,190.61,348,224.94,348.83,236.88Zm254.25,4.55c10.72-32.27,16-65.65,19.74-99.37C613.38,174.58,604.18,207.16,603.08,241.43Zm-104.25,67c7.8-12.72,20.17-52,10.28-54.84C499.18,265.57,496.53,300.66,498.83,308.47ZM227.59,217.54c3.54-23.82,3.87-48.69,5.63-73.38-.66-2.69-3.63-1.41-3.87,1.68C224.43,169.06,222,193.39,227.59,217.54ZM491.5,304.07c-6.48,9.22-13.17,15.27-20.81,24.13.81,20.05,14.38-1.79,19.82-8.05C493.27,315.19,491.45,310.26,491.5,304.07Zm-66.76-134.6c-.64,7.92-4.88,15.49-2.25,25.06C425.49,185.51,423.63,177.32,424.74,169.47Zm-135.2,5.36c2.87-3.76,2.87-3.76,1.45-8.28C290.64,169.62,288.82,171.82,289.54,174.83Z"/><path class="cls-1" d="M1002.06,350.87c23.24-21.72,37.88-49,52.29-77.12,19.73-32.7,44.32-70.07,43.27-82.71-4.54-46.87,3.84-93.23,36-127.95,21.64-28.94,33.42-37.14,59.19-47.88,2.68-5.34,7.3-18.56,14.13-14.42,1.84,5.68-1.57,9.33-2.7,14.6.44,3.34,2.56,6.74-2.4,7.84-8.47,1.09-10,9.79-14.51,16.55-25.67,48.61-51.48,94.54-75.64,143.26-21.09,27.68,17.5,72.77,5.63,103.18-3.93,13.14-11.61,27.66-25.39,31.94-4,3.19-4.31,8.08-5.85,13.21-8.07,33,28.37-17.21,31.71-22.42,8.6-12.85,7.64-31.7,18.37-41.88,9.75,1.95-14.24,42.71-11.36,48.74-4.54,42.6,7.7,42.42,23,10,6.94-23.19,8.18-50.12.7-68.81-1.58-3.17-.54-5.58,2.89-6.9,19-9.07,69.26-20.88,67.88-13.08-6.08,43.75-28.48,71.66-26.44,89.61.19,24.06,21.79-14.34,23.82-19.34,8.25-24.14,13.15-54.3,20.34-58.75,14.57,4.8-28.55,82-17.45,86.64a43.72,43.72,0,0,1,5.35-13.25c14.12-18.24,16.82-52.24,25-47.25,4.46,12.44-8.22,24.82-11.67,37.1-11.41,25.82,4,9.39,10.5-.52,7-10.25,14.85-18.62,21.23-29.12,12.29-3.48-1,29.13-2.18,32.14-4,9.3-3.28,30-12.11,29.65-4.56-4.87,4.36-21.68,4.42-27.32,6.44-5.73,4.07-11.57,6.19-17.33-17.51,17.87-20.38,35.85-42,35.59-12.13,13.76-9.75,8.78-13.76-4.47-18.55,20.94-20.8,15.76-24.56-5.82-28.56,42.47,29.34-78.85,22.42-80.82-6.16-6.86-15-1.36-22.16,2.19-11.73-1-21.65,3.36-31.74,8.65,4.56,28.88,6,65.7-12.92,92.06-18.24,25.75-24.08-.44-24.15-16.09-1.25-4.42,3.6-13.56-.58-13.21-8.8,9.51-37.25,55.22-38.13,21.84-3.92,2.1-4,8.25-9.43,9.74-18.52,11.83-4.68-16.84-8.18-24.63-8.41-3-15.93-7.29-18.67-17.66-5.49,11.59-14.5,20.22-23.07,29.89-5,9.51-12,25.52-24.07,20.52-4.67-12.72,2.92-26.35,4-39.76-8.9,8.44-24.14,12.77-23-4a137.27,137.27,0,0,1,26.26-42.63c-5,1-9.91.08-13.21,5.24-7,1.47-14.83,1.93-19.81,7.18-3.78,20.75-16.65,34-11.19,50.33-3.64,11.46-5.65-7.69-11.81,6.83C922,396,907.84,345.66,911.58,314.4c-7.19,8.78-11.36,28-27,20.47-32.09,39.4-28.89-35.68-34.87-14.14-2.09,5.31-2.44,11.43-6.9,16.21-18.42,23.6-7.13-17-5.86-24.68-36.64,36.57-34.84-1-42.85,4.06-2.64,2-2.35,7.36-5.88,3.8-13.54,18.72-36,41.3-36.5,3.66-26.42,54.58-48.45,33.6-49.81,4.93-.32-1.76-1-2.38-2.6-2-13.27,6.51-28,22.54-41.93,12.72-19.65-8.09,2.58-123.28,7.11-88.68-3.13,3.05-.49,7.6-5.12,9.71.52,1.52,2.87,2.11,2.08,4-11.45,41.19-16.63,101.35,37.63,55.85-.36-28.42,10.09-64.23,28.24-68.13,23.18,14.41-18.88,62-20.25,70.75-.38,22.46,14.51,45.2,28.54,17.1,8.3-10.79,16.9-21.28,19.6-35.19.58-10.69,16-58.84,22.33-46.32,3.63,22.63-16,38.31-19.62,59.36-.8,7.45-.92,24.23,8.71,18.39,10-8.19,23-17.85,26.56-30.38-4-29.49,15.78-77.35,25.85-50,7.79,22-41.89,65.26-1.44,68.15,37.77-21.76,19.79-74.64,15.73-104.93.71-2.12,4-2,5.15.25,2.47,14.07,12.44-5.12,19.14,1.46-5.07,36.32-9.37,69.85-17.9,106.14,22-20.45,5.87-59.86,28.62-80.82,13.8,6-13.14,58.1-10.71,63.45,4.33,32.48,16.92,44.75,20.51,7.66-.64-22.28,4.36-45.5,12.55-66.73,18.73-55.79,17.33,18.34,14.31,32.47-.66,11.07-6.51,20.47-11.77,30.08-1.62,5-8.09,12.32-3.16,17.16,12.46-5.53,22-23.41,24.47-37.09.35-11,5.86-49.84,13-45.1,7.15,19.92-8,41.54-8.89,62.41-5.47,54.66,7,64.43,30.24,14.3,1.51-56.25,3.34-114.59,16.34-170,2.45-12.09,19.49-64.33,28-48.94,2.33,16-1.22,33.91-.67,50.68-7.13,97.61-27.83,120.56-13.43,114.82,8.12-3.45,15.81-4.66,24.87-7,14.26-7.8,20.93-28.09,40.14-28.39,9.8-1.62,12.56,10.39,10.74,18.69-2,4.23-8,4.68-13.4,6.62-35.16,5.59-32.95,12.5-48.79,33.34-15.61,21.31-11.68,31.24,8.27,12.94,9.25-10.74,14.18-24.19,21-36.58,19-12.54-9.84,33.06-12,36.44C1004.55,324.2,998.9,340.64,1002.06,350.87Zm100.18-162.59c21-36.24,98.6-174.8,84.13-164.69-24.39,9.88-33.62,26.9-48.84,43.48C1105.64,100.07,1100.31,144.55,1102.24,188.28Zm-9.65,124.42c35.33-25.2,14.49-71.49,6.68-106-40,67.66-19.33,38.14-21.23,65.29-3.54,12.26-2.7,23.19-5.53,36.07-7.1,16.24,5.65,12.25,12.46,6.93,8.15-14,8.94-34.35,17.46-41.18C1112.21,273.47,1093,309.93,1092.59,312.7ZM987.83,118.46c-1,5.32-4.43,6.63-8.67,9.39-4.4,13.63-7.83,27.46-11.27,41.34-5.74,27.93-15.51,114.58-8.34,107.64,15.36-3.44,15.94-42.84,19.3-50.2C985.24,190.68,990.58,155.3,987.83,118.46Zm-87.31,127c-12.67,23-17.5,47.62-15.59,74.23C901.05,296.76,902.94,271.55,900.52,245.46Zm167.5,20c-.89,7.21-8.84,10.17-11.5,17.75-2,10.72-15.79,36.29,6.16,34.57C1071.15,303.05,1071.17,277.69,1068,265.51ZM705.88,312.44c10.14-8,14.67-22.57,19.64-34.53,8.48-22.94-2-18.92-11.32-3.82C708.68,286.68,702.94,299.45,705.88,312.44Zm312.52-52.06c11-1.6,23.56-3.17,32.35-9.7C1049.12,228.57,1024.76,250.88,1018.4,260.38ZM797.84,299.7c7.32-2,22.51-52.18,13.18-38.32C800.49,256.31,798.63,294.8,797.84,299.7Zm268,45.79c5.51-8.31,27-29.21,5.13-20.76C1065,328.8,1067.85,337.69,1065.83,345.49Zm-221.5-96.05c2.07-6.53,2.14-13.52,5.87-20C835.25,232.69,843.87,239.15,844.33,249.44Zm114.13,50c3.47-4.6,4-9.44,5.24-14.79-2.93,1.4-4.77,3.68-7.85,2.76C956.76,291.56,957.55,295.21,958.46,299.41Z"/><path class="cls-1" d="M1356.36,419.63c-.84-7.69-20.46-2.85-25-4.13-93.44-1.39-184.53.09-277.88-1.1C852.29,410.49,652.31,410.06,451,410c-82.31,1.92-163.21,3.49-245,8.18-6.49-.61-11.25,3.33-16.32-1.41-.4-3.16.84-2.52,5-2.72,37.14-2.51,72.37-5.65,109.56-5.73,102.53-3.74,202.8-4.6,305.15-3.21,252.48-.35,503.93,7.18,756.08,5.11,9.33-.63,17.21,1.11,26.7-3,3.15.21,4.65,3.95,8.71,4.25C1421.32,420.85,1355.68,408.63,1356.36,419.63Z"/><path class="cls-1" d="M156.73,446.49a13,13,0,0,1-9.82-.41c-21-8.53-44.5,2.69-67.25-.07-11.51,1.3-96.6-12-76.64-21,7,2.63,7.43,1.83,13.84.29,47.07,2.73,94.91-6.69,142.67-8.6,7.11.79,27.41-5.21,25,1.75-14,6.64-33.81,2.3-50,5.47-38.14,4.19-75.23,4.22-112.74,9.39C105.66,457.54,136.87,425.13,156.73,446.49Z"/><path class="cls-1" d="M156.17,393.55c-5.43,1.56-9.16-3.48-15.37-2.65-2.65-2.28-2-10.39.28-11.69C149,381,148.57,390.87,156.17,393.55Z"/><path class="cls-1" d="M1303.37,258.42c-3.78,1.32-7-1.91-10.63-.87.77-3-3.64-3.93-4.29-6.4C1291,241.53,1299.75,254.91,1303.37,258.42Z"/><path class="cls-1" d="M228.77,400.14c-1.18-4.26,5-29.06,8.81-17C236.35,388.68,231.08,394,228.77,400.14Z"/><path class="cls-1" d="M636.92,219.89c-1.08,5.81-.52,1.78-4.69,2.49.27,2.22-1.56,5.72-3.69,2.89C629.31,223.26,635.56,212.26,636.92,219.89Z"/><path class="cls-1" d="M352.25,317a25.66,25.66,0,0,1,2.43,9.83C351.76,323.87,351.5,323,352.25,317Z"/></g></g></svg>
