<svg xmlns="http://www.w3.org/2000/svg" viewBox="0 0 1421.61 194.31"><defs><style>.cls-1{fill:#f5a623;}</style></defs><title>wisdomoracle</title><g id="Layer_2" data-name="Layer 2"><g id="Layer_1-2" data-name="Layer 1"><path class="cls-1" d="M482,7.26c-8.15-4-13-5-16.79-5.11v4c8.4,1.73,9.17,6.34,10.9,9,4.55,13.87,1.46,39.81,2.32,53.45-30.1-29.18-77.14.23-72.27,37.8,4.37,41.19,55.67,44.17,72.27,13.32V125a11.67,11.67,0,0,1-4.34,8.1,11.22,11.22,0,0,1-4.92,2.22v4H502v-4a10.54,10.54,0,0,1-4.83-2.22c-3.42-3.3-3.76-6.05-3.76-8.29,0-3.85-.51-81.46-.51-81.46s-.51-17.42,5.24-23.11a12.21,12.21,0,0,1,5-2.9V13.34a33.64,33.64,0,0,1-11.09-1.74A56.74,56.74,0,0,1,482,7.26ZM478.47,109s-5.83,21.68-26.24,21.68c-21,0-32.82-20.89-32.61-40.93.15-14.48,10.68-29.17,29.82-29.17,21.7,0,29,22.85,29,22.85Zm767.65,21.76c-21.14,2-33-19.44-33.87-21.17-1.4-2.63-11.51-22.52.47-37.64a29.78,29.78,0,0,1,30.11-10.82c13.17,3.3,12.41,13.86,11.42,16.52a12.17,12.17,0,0,1-2,3.47l2.7,2.8,19.2-15.63c-.52-1.12-1.55-3.37-1.55-3.37s-1.09,0-4.34,0c-4.7,0-11.29-8.94-29.17-8.94-13,0-28.63,6-37.52,18.75-13.18,18.93-5.2,39.86-4.58,41.35a45.62,45.62,0,0,0,10.53,14.35,43.56,43.56,0,0,0,39.1,9.76c23.82-5.84,31.48-27.28,31.48-30.59l-3.76-1.45C1269.45,120.73,1258.55,129.6,1246.12,130.79Zm172-19.44c-7.68,11.81-16.94,17.64-26.21,19-15.34,2.32-30.72-7.5-39-22.42-9.52-16.73-6.48-36.45,8.78-42.73,9.61-3.27,29.32-2.2,37.62,17.65L1361.61,111l2.32,3.38,53.73-39.94c-11.33-13-25-17.78-38-17.78-24.9,0-43.81,18.89-44.07,41.6-.11,9.6,3.44,20,12,30.2a39.11,39.11,0,0,0,28.94,12.12c20.12,0,37.78-11.69,45-27.17ZM289,123.13c0-12.28-.11-52.94-.58-65.13h-24.5v4c5.71.11,9.92,5.71,9.92,13.85,0,17.35-.27,38.05-.27,46.85,0,9.45-4,9.7-5,11.36a9.43,9.43,0,0,1-4.63,1.06v4.15h34.63v-4.15c-1.86,0-3.63-.06-4.63-1.06C289.93,130,289,128.91,289,123.13ZM322.39,78.2c-5-5-1.58-16.92,18.93-16.92,18.76,0,24.76,4.25,30.52,7.5,7.3,4.13,3,12.06,3,12.06l.15.51c16.16,4.44,16.41-15.07,3.15-18.82-8.39-2.37-14.76-6-37.07-6-23.64,0-34.49,17.77-26.64,31.15,12.33,21,49.11,11.36,64.83,22.76,7.18,5.21,6.78,13.25,4.24,17.17-4.5,6.95-11.87,7.43-16.3,7.43-18.87,0-40.52-8.6-47.18-13.59-6.47-4.86-8.09-12.94-8.09-12.94l-6.47,1.61c.77-.19,4,11.33,2,19.24,18.17,7.45,45.63,11.09,58.19,11.09,23.53,0,32.65-17.11,25.9-36.09C383.42,81.47,334.64,90.58,322.39,78.2ZM558.51,56c-24.3,0-44,18.85-44,42.11s19.69,42.1,44,42.1,44-18.85,44-42.1S582.8,56,558.51,56Zm19.14,75.19c-12.49,7.21-31.19-1.78-41.76-20.09a52,52,0,0,1-6.74-19.8c2.06,3.41,7.51,6.55,11.83,7.93,4.12,1.25,8.67.29,10.45-4.19a6.44,6.44,0,0,0-4.35-8.41A6.66,6.66,0,0,0,538.51,93c-4.61-3.77-9.38-10.86-8.07-16.63a18,18,0,0,1,8.93-11.5c12.49-7.21,31.18,1.79,41.75,20.1S590.14,124,577.65,131.18ZM903.66,0c-40.58,0-69.3,37-69.3,70.81,0,39.1,31,70.81,69.3,70.81S973,109.91,973,70.81,941.94,0,903.66,0Zm34.76,123.74c-21.11,12.19-61,7.48-83.27-33.41C835.79,54.84,849.6,28.77,870,16.26a60,60,0,0,0-5.94,14.38c-2.74,9.63-.43,27.48,18.86,27.48,8,0,16.06-6.18,16.06-15.75,0-3.54-2.42-11.54-10.42-11.54-4.1,0-8,2.82-8,6.59,0,1.9,1.57,4,2.2,4.78,5.41,4.48,10.44.14,11.28-3.18.19.51.39,1.09.58,1.73.6,2.41-1.35,13.13-12.64,13.13-13.65,0-15.63-15.7-13.18-23.53,6.74-21.48,27.65-19.76,42.26-15.14,15.75,5.71,31.27,17.24,40.52,33.25C969.47,79.41,959.54,111.55,938.42,123.74ZM204.7,108.65c25.64-26.32,57.38-54.49,48.43-88.56-1-3.72-6.79-19.93-21.38-19.93C221.4.16,216,1.93,211.84,9.77c-3.8,8.09-.87,13.09,1.25,17a11.17,11.17,0,0,0,3.76,3.57,11.54,11.54,0,0,0,8.59.77c1.09-.32,6.31-2.23,6.31-7.4,0-4.71-4.7-7.06-8-7.06a6.19,6.19,0,0,0-5,2.69c-2.15,4.29-2.36,5.11-1.79,5.89-5.41-6.53-2.49-21.29,12.88-21.29,8.47,0,17.28,6.05,19.4,17.82,6.27,36.76-25.4,59.6-45.53,82.08-7.23,8-12.83,15.05-12.83,15.05S161.65,62.1,143.45,25.81c-5.74-11.45-2.92-21.41,6.94-19.51V2.15H100.81V6.3a15,15,0,0,1,8.87,2.8c6.39,5,9.91,11.09,12.45,15.72,5.1,10.3,9.64,19.2,9.64,19.2L80.65,118.87,36.56,27.47C30.89,15.66,32.45,7,42.06,4.22v-4A40.19,40.19,0,0,0,30.58,2C20.4,5.86,15.76,8.68,11.48,9.91A37.85,37.85,0,0,1,0,11.84V15.6c9.32,4.58,12.57,9.16,15.82,13.51,4.25,7.32,41.44,87.38,44.57,95.07,2.22,9.81-4.25,10.18-9.65,10.9v4.15h48v-4.15c-5.82,0-10.77-4.54-11.48-5.89-3.43-7.73,2.09-15.27,4-18.81L133.8,48.16l35.11,72.06c3.22,7.82,1.33,10.42-.67,12.74-1.68,1.41-4.15,2.12-7.43,2.12v4.15h48.42v-4.15c-10.06-1.51-10.67-4.82-11.38-6.18a12.23,12.23,0,0,1-.29-8.77A39.53,39.53,0,0,1,204.7,108.65ZM1104.92,59.6l1.54-2-3.18-2.32-8.49,11.19,3,2.61c15-13.44,36.35-10.49,42.06,5.5l6,14.52c-25.78-16.56-72.07-3.6-64.22,29.85,5.62,15.64,20.5,23.11,35.56,23.54,16.7.48,33.63-7.71,38.41-23l-4-1c-.77,2.76-7.57,18.42-28.28,18.42-13.17,0-21-10-23.52-14.86-10.46-22.25,14.59-39.72,32.41-34.53,8.12,2.36,14.78,7.15,17,11.52,9,18.11,13.76,31.45,19.23,40.19h16s-25.14-59.63-30.29-65.45C1142.2,56.3,1119.22,53.14,1104.92,59.6Zm-37.82.24a13.63,13.63,0,0,1-4,1.32c-3.77.29-6.11-1.88-8.47-2.82-5.71-2.29-18.32-3.26-29.15,1.28-9.14,3.83-14.69,11-17.71,16V58h-24.5v4a11.2,11.2,0,0,1,6.44,3c4.23,4.23,3.91,12.61,3.81,13.11v44.15c0,3.43-1,7.66-3.81,10.49-1.08,1.08-3.06,2.15-6.44,2.4v4.15h34.63v-4.15a12.3,12.3,0,0,1-10.13-7.72V88.45c.77-8.17,11-21.84,24.28-22.11,12.29-.25,19.93,9.55,20.77,10.67-6.31,9.75-9.34,19.6-6.65,27.68a13.11,13.11,0,0,0,2.79,4.54c3.21,3.37,8.89,5.63,13.41,3.66a9.27,9.27,0,0,0,3.56-2.8,8,8,0,0,0,1.88-6.11c-.39-2.31-2.16-5.21-5.18-5.65-3.53-.51-7.06,2.6-7.06,5.65a9.69,9.69,0,0,0,2.37,5.63c-1.9-.46-5.75-2.5-7.07-4.22-5.76-7.54,1.85-24.89,18.74-42.66ZM742.36,57.18c-14.81-.53-31.06,6.14-39.61,19.25a24.69,24.69,0,0,0-4.82-9.17,33.61,33.61,0,0,0-17.17-9.74c-18.93-4-33.59,3.32-42.64,16.5V58h-24.5v4c8.64,0,9.64,11.19,9.64,11.19v54.21a14.22,14.22,0,0,1-5,6.66,8.54,8.54,0,0,1-4.63,1.06v4.15h34.63v-4.15a9.84,9.84,0,0,1-4.63-1.06c-3.48-1.81-5.5-7.56-5.5-9.48,0-3.15,0-39.69,0-39.82,6.72-19.32,23.66-27.79,39.74-22,9.43,3.4,10.88,15.49,10.88,18.19v45.25s-1.56,4.62-4.3,6.39a15.9,15.9,0,0,1-8.6,2.52v4.15H712v-3.77a16.09,16.09,0,0,1-8.53-14.32c0-12.46,0-36,0-36s6.25-16,20.9-19.19C755.48,59.06,765.28,95,751.64,119c-1.78,3.14-16.94,29.17-21.39,44.79-2.75,9.64-1.19,30.49,18.1,30.49,8,0,16.06-6.17,16.06-15.75C764.41,175,762,167,754,167c-4.1,0-8,2.83-8,6.59,0,1.9,1.57,4,2.2,4.78,5.41,4.48,10.45.14,11.29-3.18.19.51.38,1.09.57,1.73.6,2.41-1.35,13.14-12.64,13.14-13.65,0-15.63-15.71-13.18-23.54,9.88-31.51,30.58-40.45,37.59-65.51C780,71.89,762.5,57.89,742.36,57.18ZM1304.89,9c-9.29,4-13.05,4.13-17.37,4.34v4.43c8.94,0,9.65,16.65,9.65,16.65v90.34s-2.59,10.51-9.26,10.51v4h33.18v-4c-9.3-2-9-10.65-9.26-15.82.2-2.85,0-90,0-91.49,0-16.2,7.36-21,13-21.86V2.15c-6.35-.24-13.36,3.92-15.15,4.63A39.81,39.81,0,0,1,1304.89,9ZM280.18,34.7h.87a30.55,30.55,0,0,1,6.74-10.21,29.62,29.62,0,0,1,10.07-6.63V17A30.07,30.07,0,0,1,281.07.18h-.88A29.24,29.24,0,0,1,263.35,17v.87a29.75,29.75,0,0,1,10.11,6.67A30.68,30.68,0,0,1,280.18,34.7Z"/></g></g></svg>